<?xml version="1.0" standalone="no"?>
<!DOCTYPE svg PUBLIC "-//W3C//DTD SVG 20010904//EN"
 "http://www.w3.org/TR/2001/REC-SVG-20010904/DTD/svg10.dtd">
<svg version="1.0" xmlns="http://www.w3.org/2000/svg"
 width="785.000000pt" height="276.000000pt" viewBox="0 0 785.000000 276.000000"
 preserveAspectRatio="xMidYMid meet">

<g transform="translate(0.000000,276.000000) scale(0.100000,-0.100000)"
fill="#000000" stroke="none">
<path d="M3465 2534 c-276 -17 -500 -53 -724 -118 -163 -47 -404 -146 -681
-279 -74 -35 -167 -78 -207 -96 -133 -58 -447 -212 -494 -242 -43 -27 -75 -70
-62 -83 11 -10 48 -7 61 6 9 9 8 16 -4 29 -14 15 -11 19 30 42 42 23 321 144
501 217 44 18 120 53 170 77 93 47 364 171 474 217 382 162 730 215 1321 203
306 -7 542 -24 765 -58 144 -22 323 -63 339 -79 9 -9 -13 -7 -124 11 -261 43
-1010 73 -1220 49 -56 -6 -44 -7 80 -10 l145 -3 -185 -9 c-102 -5 -207 -7
-235 -4 -31 3 -42 1 -30 -4 22 -8 120 -122 210 -245 88 -119 200 -230 285
-283 41 -25 91 -60 111 -78 88 -77 132 -92 344 -119 153 -20 399 -76 645 -146
96 -28 207 -57 245 -64 39 -8 83 -19 98 -24 16 -6 36 -11 45 -11 9 1 -26 17
-78 36 -52 19 -100 32 -106 30 -7 -3 -31 2 -55 9 -25 8 -35 14 -24 15 21 2
-68 38 -95 39 -13 1 -13 0 0 -9 25 -16 1 -11 -107 19 -56 17 -119 33 -140 37
-29 6 -33 9 -19 14 13 4 -8 11 -60 19 -43 6 -119 18 -169 26 -49 8 -145 22
-212 30 -136 17 -209 40 -274 87 -31 23 -39 32 -28 38 44 24 1483 50 1739 31
442 -32 778 -84 1098 -171 219 -59 401 -154 533 -279 44 -40 79 -77 79 -81 0
-5 -24 7 -52 27 -126 86 -348 174 -723 287 -182 55 -258 69 -120 22 185 -63
456 -189 520 -241 l20 -17 -20 8 c-594 216 -1351 367 -1946 388 -150 5 -134 2
131 -19 172 -15 361 -37 558 -67 85 -13 113 -27 41 -22 -34 2 -38 0 -28 -12 6
-8 19 -14 28 -13 12 0 11 2 -4 9 -19 8 -18 9 4 9 19 1 22 -3 18 -20 -3 -12 0
-22 9 -26 8 -3 14 -10 14 -16 0 -7 -4 -7 -12 1 -15 15 -30 15 -52 -1 -16 -12
-15 -13 13 -11 16 1 30 -1 29 -5 -2 -18 3 -22 16 -12 11 9 16 9 22 0 5 -8 3
-9 -6 -4 -10 6 -12 4 -7 -9 6 -14 3 -17 -9 -12 -8 3 -22 6 -30 6 -9 0 -12 5
-9 10 3 6 1 10 -4 10 -14 0 -14 -17 -1 -25 6 -4 8 -10 6 -14 -3 -4 8 -5 25 -3
33 5 37 -4 12 -25 -10 -8 -12 -12 -5 -8 8 4 12 -2 12 -19 0 -14 3 -25 8 -25
22 4 32 -3 32 -22 0 -14 -5 -19 -14 -16 -8 3 -34 11 -58 17 -24 6 -83 24 -133
41 -201 66 -434 133 -441 127 -2 -3 346 -111 366 -113 37 -5 389 -129 460
-162 180 -85 114 -77 725 -83 512 -5 552 -6 584 -24 78 -42 218 -222 228 -292
9 -74 -93 -337 -147 -376 -68 -49 -477 -97 -885 -104 -340 -6 -383 -1 -396 49
-4 16 -34 67 -67 115 -33 48 -71 107 -85 132 -68 122 -105 175 -123 176 -126
7 -403 28 -454 35 -66 8 98 5 330 -7 154 -7 165 -10 179 -42 17 -37 99 -156
188 -274 50 -66 82 -100 101 -105 55 -16 696 2 990 27 133 12 165 24 211 75
43 49 98 164 113 236 11 52 10 60 -11 100 -13 24 -48 77 -78 118 -79 105 -102
114 -313 119 -227 6 -761 -15 -825 -33 -32 -9 -102 -50 -190 -110 -77 -52
-155 -98 -173 -101 -18 -4 -85 1 -150 9 -64 9 -146 18 -182 21 -200 16 -439
37 -465 42 -39 8 -97 43 -167 102 -193 161 -211 174 -236 167 -32 -8 -69 7
-162 66 -172 109 -284 145 -422 136 -61 -4 -89 -12 -138 -38 -78 -42 -146
-102 -206 -184 -26 -36 -49 -63 -52 -61 -2 2 4 33 14 68 27 99 25 130 -11 147
l-30 15 25 6 c23 6 22 8 -15 18 -114 31 -169 43 -180 38 -10 -3 -12 6 -9 37 4
44 0 41 -10 -5 -4 -16 -11 -25 -19 -23 -15 5 -194 31 -307 44 -47 6 -141 17
-210 25 -68 8 -205 20 -305 26 -118 8 -189 16 -205 26 -75 42 -96 47 -205 48
-60 0 -119 -3 -130 -7 -16 -7 -17 -7 -5 2 12 8 4 11 -33 11 -26 0 -93 7 -150
16 -68 10 -174 16 -323 16 -237 1 -218 4 -319 -57 -23 -14 -48 -22 -59 -19
-11 4 -16 2 -12 -4 7 -12 -32 -48 -42 -38 -4 4 2 14 12 22 11 8 15 14 8 14
-21 0 -52 -44 -67 -93 -36 -120 -45 -362 -16 -442 6 -16 28 -87 51 -158 40
-127 78 -216 108 -250 21 -24 9 -31 -35 -19 -427 114 -853 263 -1093 381 -44
22 -80 38 -80 36 0 -7 97 -72 198 -134 263 -160 515 -268 903 -386 100 -30
195 -58 213 -60 17 -3 96 -21 176 -40 375 -89 1223 -223 1635 -260 39 -3 86
-8 105 -10 36 -4 171 -16 385 -35 1066 -92 2576 -70 3715 56 349 38 324 32
328 76 4 43 9 41 -138 59 -52 6 -99 13 -103 16 -4 2 27 22 70 43 43 21 92 50
108 63 29 24 30 29 34 119 4 102 -14 354 -31 433 -6 28 -25 77 -44 110 -19 34
-38 88 -44 126 -17 95 -57 160 -138 219 -177 131 -479 213 -1287 350 -99 17
-187 33 -195 35 -8 3 -31 28 -50 56 -19 28 -47 60 -62 70 -29 21 -140 49 -197
49 l-34 0 47 -24 c27 -14 53 -23 60 -20 18 6 83 -38 110 -75 14 -19 24 -36 22
-38 -8 -8 -96 41 -146 82 -55 45 -110 75 -137 75 -8 0 -60 26 -116 59 -439
252 -810 357 -1407 395 -112 8 -629 15 -705 10z m1400 -186 c148 -14 234 -47
458 -177 101 -58 356 -218 374 -235 9 -8 -43 -12 -196 -14 -242 -4 -192 -21
-453 155 -171 115 -365 217 -473 248 -33 10 -69 21 -80 26 -26 11 249 9 370
-3z m-2395 -52 c0 -2 -7 -7 -16 -10 -8 -3 -12 -2 -9 4 6 10 25 14 25 6z m-123
-57 c-30 -17 -87 -40 -87 -34 0 7 80 43 95 44 6 0 2 -4 -8 -10z m-127 -54 c0
-6 -56 -35 -67 -35 -4 1 8 9 27 20 39 22 40 22 40 15z m4555 -455 c19 -8 19
-9 -2 -9 -12 -1 -25 4 -28 9 -7 12 2 12 30 0z m-4848 -21 c46 -6 87 -17 94
-25 6 -8 21 -15 33 -16 11 0 -50 -4 -137 -8 -86 -4 -160 -10 -164 -13 -3 -4 1
-15 10 -25 10 -10 17 -26 17 -36 0 -27 59 -105 83 -110 12 -3 80 -8 151 -11
140 -7 178 -14 136 -26 -14 -4 -45 -8 -70 -8 -25 -1 -73 -8 -107 -16 -49 -11
-69 -12 -90 -3 -55 22 -60 20 -42 -15 7 -12 -18 10 -55 50 -90 96 -147 125
-248 123 -40 -1 -83 1 -94 5 -15 5 -23 2 -28 -12 -4 -10 -2 -19 4 -21 8 -3 7
-8 -1 -18 -9 -11 -14 -12 -19 -4 -8 12 -35 1 -73 -30 -18 -14 -18 -13 -1 30
20 51 70 120 87 120 7 0 39 13 72 28 51 24 120 43 200 54 32 5 154 -2 242 -13z
m5093 -41 c222 -60 346 -105 450 -160 112 -59 137 -80 146 -122 3 -17 13 -43
20 -58 8 -16 12 -28 9 -28 -4 0 -19 29 -35 64 -16 36 -33 67 -38 70 -5 3 -23
2 -39 -3 -24 -7 -37 -4 -69 16 -122 76 -271 140 -509 219 -181 61 -151 62 65
2z m-4507 0 c66 -14 59 -28 -15 -27 -70 1 -195 15 -163 18 18 2 18 3 -4 15
-21 12 -14 13 55 9 44 -2 100 -9 127 -15z m3462 13 c25 -6 27 -8 10 -12 -11
-3 -33 0 -50 7 -33 14 -13 17 40 5z m-31 -33 c-3 -4 1 -8 8 -8 10 -1 9 -4 -2
-13 -8 -7 -14 -23 -13 -37 2 -15 0 -19 -4 -10 -3 8 -14 30 -25 48 l-18 32 29
-2 c16 -1 27 -6 25 -10z m-879 -118 c13 -6 15 -9 5 -9 -8 0 -22 4 -30 9 -18
12 -2 12 25 0z m875 -5 c0 -8 -5 -15 -11 -15 -5 0 -7 -5 -4 -10 4 -6 11 -7 17
-4 7 4 8 2 4 -4 -4 -6 -13 -9 -21 -6 -12 5 -14 24 -6 52 3 10 21 -1 21 -13z
m-2312 -287 c-1 -139 1 -305 4 -368 5 -82 4 -99 -2 -60 -17 104 -20 680 -4
680 2 0 3 -114 2 -252z m848 226 c53 -13 176 -88 225 -138 27 -28 49 -53 49
-57 0 -4 5 -20 11 -36 19 -47 22 -93 5 -93 -13 0 -13 -4 0 -35 25 -61 15 -52
-22 20 -65 125 -119 189 -214 252 -57 38 -104 54 -205 69 -60 8 -70 12 -39 13
41 1 124 -12 157 -24 13 -6 16 -3 11 9 -3 9 -14 16 -24 16 -11 0 -22 5 -26 11
-5 8 1 10 18 6 14 -4 38 -9 54 -13z m-2849 -22 c34 -19 101 -101 128 -158 42
-89 58 -176 52 -294 -6 -153 -52 -257 -139 -320 -95 -69 -199 -16 -271 138
-52 110 -70 203 -64 332 6 149 52 265 120 302 50 27 123 27 174 0z m648 -106
c14 -59 24 -110 21 -113 -5 -6 -16 31 -45 155 -10 46 -15 80 -11 75 5 -4 20
-57 35 -117z m5350 -46 c10 -30 24 -64 31 -75 13 -18 14 -16 14 23 0 23 -4 42
-9 42 -5 0 -7 8 -4 18 2 10 -1 31 -8 47 -18 45 -20 58 -5 46 14 -12 44 -117
48 -166 1 -16 -3 -39 -9 -51 -12 -21 -84 -51 -101 -41 -5 4 -26 31 -47 62 -52
75 -51 124 2 170 l38 32 16 -26 c9 -14 24 -51 34 -81z m-105 86 c0 -2 -7 -7
-16 -10 -8 -3 -12 -2 -9 4 6 10 25 14 25 6z m-1380 -10 c0 -11 -19 -15 -25 -6
-3 5 1 10 9 10 9 0 16 -2 16 -4z m-1753 -47 c37 -18 77 -47 98 -72 153 -177
202 -544 102 -768 -30 -68 -95 -141 -155 -177 -65 -37 -164 -38 -236 -2 -103
53 -193 185 -238 350 -41 155 -28 392 29 505 30 58 88 126 133 155 88 57 162
59 267 9z m-2059 -184 c0 -5 -6 4 -13 20 -8 17 -14 37 -14 45 0 8 7 -1 14 -20
7 -19 13 -39 13 -45z m5419 -22 c13 -33 18 -119 7 -147 -13 -33 -42 -15 -89
56 l-48 72 44 37 c49 42 62 39 86 -18z m-1407 32 c0 -2 -10 -9 -22 -15 -22
-11 -22 -10 -4 4 21 17 26 19 26 11z m-140 -89 c0 -3 -15 -14 -32 -26 l-33
-22 30 26 c31 27 35 29 35 22z m-3638 -64 c94 -19 216 -46 783 -178 83 -19
187 -44 233 -55 45 -11 111 -24 145 -29 59 -8 58 -9 -28 -6 -80 3 -314 33
-880 111 -208 29 -386 61 -395 72 -4 5 -15 30 -24 56 -23 62 -34 54 -12 -9 9
-26 14 -49 12 -51 -2 -2 -14 0 -27 5 -13 6 -89 24 -169 42 -187 42 -183 40
-130 56 68 20 356 12 492 -14z m5189 -128 c0 -32 -3 -95 -6 -140 -6 -73 -5
-83 13 -100 28 -27 14 -56 -50 -98 -63 -42 -117 -59 -257 -81 -189 -29 -123
-9 139 41 32 7 35 11 20 29 -11 13 -5 31 33 108 26 50 52 117 58 147 6 30 16
61 21 68 6 7 8 28 5 47 -3 21 -2 33 4 30 5 -4 9 -1 9 6 0 7 3 10 6 7 3 -4 5
-32 5 -64z m-1581 2 c0 -11 -19 -15 -25 -6 -3 5 1 10 9 10 9 0 16 -2 16 -4z
m-526 -41 c216 -19 236 -22 236 -40 0 -19 -51 -19 -235 0 -168 17 -259 19
-286 4 -20 -10 -105 -121 -147 -191 -19 -30 -21 -40 -11 -61 22 -48 43 -51
357 -55 208 -3 297 0 307 8 9 7 15 8 20 0 8 -13 100 -13 165 1 63 14 93 7 108
-25 10 -22 8 -26 -26 -43 -73 -36 -454 -27 -815 19 -98 12 -158 42 -178 90
-14 33 4 68 100 193 94 123 105 126 405 100z m-310 -142 c-80 -114 -87 -111
-10 5 22 34 44 62 49 62 4 0 -13 -30 -39 -67z m610 -40 c58 -59 106 -111 106
-115 0 -4 -38 -8 -85 -8 -47 0 -85 3 -85 8 1 14 51 44 66 38 30 -12 11 15 -48
67 -35 30 -83 68 -107 86 l-44 31 45 0 c44 0 48 -2 152 -107z m-246 61 c36 -5
52 -11 52 -22 0 -11 -7 -13 -27 -8 -16 3 -54 9 -85 13 -32 3 -58 10 -58 14 0
11 44 11 118 3z m-3445 -30 c67 -9 124 -18 126 -20 2 -2 -59 -4 -137 -4 -112
0 -142 3 -142 13 0 32 -2 31 153 11z m5307 -108 c0 -7 -6 -18 -12 -24 -19 -15
-115 -45 -130 -40 -7 3 13 12 45 22 32 9 63 25 70 36 14 23 27 26 27 6z m-647
-183 c-7 -2 -21 -2 -30 0 -10 3 -4 5 12 5 17 0 24 -2 18 -5z"/>
<path d="M5915 1640 c3 -5 8 -10 11 -10 2 0 4 5 4 10 0 6 -5 10 -11 10 -5 0
-7 -4 -4 -10z"/>
<path d="M1452 1375 c-16 -13 -40 -48 -53 -77 -21 -47 -23 -69 -24 -183 0
-108 4 -142 23 -202 35 -111 127 -213 193 -213 63 0 124 76 147 185 21 98 23
126 12 205 -16 120 -61 220 -122 275 -34 31 -45 35 -92 35 -43 0 -60 -5 -84
-25z m128 -5 c22 -7 21 -8 -13 -9 -60 -2 -92 -24 -123 -87 -33 -68 -44 -189
-24 -286 17 -89 73 -194 115 -220 38 -22 43 -28 20 -28 -25 0 -92 68 -114 116
-35 73 -54 188 -49 284 8 124 43 195 113 226 34 15 40 15 75 4z m118 -308 c2
-51 0 -63 -14 -69 -25 -9 -54 32 -54 76 0 42 16 63 45 59 17 -3 20 -12 23 -66z"/>
<path d="M4147 1250 c-58 -37 -111 -115 -133 -200 -23 -90 -24 -283 -1 -370
50 -187 160 -313 292 -334 57 -10 138 33 186 97 57 77 74 148 73 307 -1 147
-20 242 -71 346 -80 163 -227 229 -346 154z m88 -10 c-3 -5 -12 -10 -19 -10
-16 0 -77 -65 -103 -110 -57 -96 -71 -295 -33 -445 22 -87 42 -125 104 -201
51 -63 135 -102 182 -84 24 9 27 9 16 -2 -19 -20 -102 -13 -151 11 -131 67
-211 242 -211 463 0 166 66 319 157 367 41 22 68 27 58 11z m80 -10 c13 -6 15
-9 5 -9 -8 0 -22 4 -30 9 -18 12 -2 12 25 0z m50 -20 c3 -6 -1 -7 -9 -4 -18 7
-21 14 -7 14 6 0 13 -4 16 -10z m96 -279 c32 -26 36 -113 7 -159 -25 -40 -74
-46 -83 -9 -16 62 -9 129 16 161 24 31 30 32 60 7z m-211 -357 c22 -50 25 -74
11 -74 -5 0 -12 -14 -16 -31 l-7 -31 -25 24 c-14 13 -38 46 -54 73 l-29 50 23
17 c12 10 34 18 49 18 23 0 30 -8 48 -46z"/>
<path d="M2875 2381 c-87 -21 -224 -69 -350 -124 -175 -75 -392 -186 -423
-215 -32 -30 -32 -32 -18 -59 38 -74 61 -81 317 -98 l106 -7 23 64 c30 83 149
318 161 318 8 0 -27 -71 -52 -105 -11 -15 -100 -216 -109 -247 -8 -26 -8 -27
53 -32 34 -3 144 -11 245 -17 112 -6 199 -16 225 -25 23 -9 71 -22 107 -30
l65 -14 -55 5 c-54 4 -357 25 -680 45 -91 6 -183 12 -205 14 -22 2 -93 7 -157
11 -78 5 -123 12 -135 22 -17 13 -16 14 10 8 15 -3 27 -1 27 5 0 13 -55 13
-78 1 -9 -6 -39 -13 -67 -18 -50 -7 -50 -7 35 -14 47 -4 153 -14 235 -22 148
-16 293 -26 655 -47 237 -14 518 -40 545 -50 18 -8 18 -9 -6 -9 -14 -1 -34
-11 -45 -23 -16 -19 -16 -21 -1 -9 14 12 22 12 41 1 26 -13 190 -5 181 10 -3
4 5 10 18 14 36 9 42 7 21 -9 -18 -14 -18 -14 6 -15 58 -1 70 -10 70 -53 0
-49 17 -39 22 13 3 34 19 48 83 73 15 6 -13 59 -101 194 -197 302 -277 393
-382 434 -80 32 -272 36 -387 10z m377 -20 c64 -25 142 -90 198 -165 56 -77
235 -347 254 -383 22 -45 20 -51 -15 -50 -29 2 -35 9 -91 117 -211 409 -312
490 -592 478 -98 -5 -128 -11 -255 -53 -80 -26 -196 -69 -259 -96 -63 -27
-117 -47 -120 -44 -7 7 204 105 323 150 154 58 249 75 385 71 89 -2 128 -8
172 -25z m159 -335 c18 -8 49 -58 49 -80 0 -13 -5 -14 -27 -5 -18 7 -91 6
-231 -2 -179 -10 -206 -9 -219 4 -34 34 29 66 162 83 97 13 234 12 266 0z
m-72 -202 c2 -2 -37 -4 -87 -4 -60 0 -92 4 -92 11 0 7 27 9 88 4 48 -4 89 -9
91 -11z"/>
<path d="M2095 2359 c-71 -5 -260 -15 -420 -24 -279 -14 -410 -22 -745 -45
-210 -14 -711 -58 -785 -69 l-60 -8 95 -2 c263 -4 697 -24 1060 -47 223 -15
450 -28 505 -28 l100 -1 155 71 c85 40 202 88 260 109 58 20 114 41 125 45 25
11 -113 10 -290 -1z"/>
<path d="M7774 2122 c-102 -66 -162 -164 -172 -277 -7 -90 18 -165 72 -219 43
-44 111 -88 154 -101 l23 -7 -5 129 c-8 167 -8 211 0 376 3 81 2 137 -4 137
-5 0 -36 -17 -68 -38z"/>
<path d="M341 2026 c2 -3 85 -14 184 -25 99 -12 250 -30 335 -41 258 -32 433
-51 480 -51 36 0 69 13 160 60 l115 61 -639 0 c-352 0 -637 -2 -635 -4z"/>
<path d="M2 1869 c2 -7 35 -23 74 -36 71 -25 659 -204 794 -243 189 -54 245
-70 252 -70 5 0 8 18 8 40 0 46 32 144 55 170 8 9 15 18 15 21 0 2 -26 5 -58
6 -31 2 -84 5 -117 8 -125 10 -292 26 -330 30 -217 26 -397 48 -480 59 -189
27 -218 29 -213 15z"/>
<path d="M1602 1799 c-29 -5 -61 -13 -70 -18 -9 -5 -37 -12 -62 -16 -49 -8
-88 -24 -60 -25 9 0 4 -9 -15 -25 -47 -38 11 -26 75 16 33 21 154 34 315 33
119 -1 136 10 25 16 -41 2 -42 3 -15 9 25 6 20 8 -34 14 -74 8 -87 8 -159 -4z"/>
<path d="M4851 1806 c3 -3 34 -7 69 -10 42 -3 56 -2 40 4 -26 8 -117 13 -109
6z"/>
<path d="M2118 1743 c7 -3 16 -2 19 1 4 3 -2 6 -13 5 -11 0 -14 -3 -6 -6z"/>
<path d="M2198 1733 c7 -3 16 -2 19 1 4 3 -2 6 -13 5 -11 0 -14 -3 -6 -6z"/>
<path d="M4553 1733 c9 -2 25 -2 35 0 9 3 1 5 -18 5 -19 0 -27 -2 -17 -5z"/>
<path d="M4705 1715 c50 -7 106 -13 125 -13 30 0 29 1 -12 8 -26 5 -82 11
-125 14 l-78 5 90 -14z"/>
<path d="M4898 1693 c6 -2 18 -2 25 0 6 3 1 5 -13 5 -14 0 -19 -2 -12 -5z"/>
<path d="M5020 1669 c47 -10 110 -23 140 -28 30 -5 71 -13 90 -17 19 -4 33 -4
30 -1 -6 7 -308 67 -330 66 -8 -1 23 -9 70 -20z"/>
<path d="M2888 1663 c6 -2 18 -2 25 0 6 3 1 5 -13 5 -14 0 -19 -2 -12 -5z"/>
<path d="M2963 1653 c9 -2 23 -2 30 0 6 3 -1 5 -18 5 -16 0 -22 -2 -12 -5z"/>
<path d="M3038 1643 c6 -2 18 -2 25 0 6 3 1 5 -13 5 -14 0 -19 -2 -12 -5z"/>
<path d="M3118 1633 c7 -3 16 -2 19 1 4 3 -2 6 -13 5 -11 0 -14 -3 -6 -6z"/>
<path d="M4778 1613 c6 -2 18 -2 25 0 6 3 1 5 -13 5 -14 0 -19 -2 -12 -5z"/>
<path d="M4828 1603 c7 -3 16 -2 19 1 4 3 -2 6 -13 5 -11 0 -14 -3 -6 -6z"/>
<path d="M4880 1590 c34 -11 60 -11 35 0 -11 5 -29 8 -40 8 -16 0 -15 -2 5 -8z"/>
<path d="M0 1514 c0 -2 18 -13 39 -24 22 -11 59 -33 83 -48 145 -97 616 -294
938 -393 52 -16 102 -32 111 -34 15 -5 15 -1 2 47 -8 29 -12 67 -9 85 5 38 23
30 -189 77 -194 43 -238 54 -430 112 -285 85 -350 106 -447 144 -54 21 -98 36
-98 34z"/>
<path d="M5530 1480 c8 -5 20 -10 25 -10 6 0 3 5 -5 10 -8 5 -19 10 -25 10 -5
0 -3 -5 5 -10z"/>
<path d="M4846 1431 c-15 -24 203 -239 280 -276 74 -35 380 -68 639 -69 149
-1 163 1 205 22 81 42 170 97 170 104 0 18 -175 44 -450 68 -69 6 -230 22
-358 36 -129 14 -237 23 -240 19 -10 -10 95 -102 144 -126 50 -23 280 -47 297
-30 7 7 1 23 -16 50 l-26 40 32 -5 c18 -2 88 -8 157 -14 160 -14 350 -39 369
-49 10 -6 -9 -21 -70 -52 l-84 -44 -115 2 c-116 2 -416 26 -544 44 -40 5 -90
21 -119 36 -56 31 -217 185 -217 208 0 12 15 15 83 15 185 0 658 -60 877 -111
47 -11 125 -29 174 -40 49 -10 94 -23 100 -28 6 -5 27 -12 46 -16 33 -7 34 -6
15 9 -11 8 -26 16 -33 16 -7 0 -23 6 -35 14 -68 45 -519 148 -662 151 -33 1
-87 5 -120 8 -243 27 -488 36 -499 18z m651 -37 c-3 -3 -12 -4 -19 -1 -8 3 -5
6 6 6 11 1 17 -2 13 -5z m-323 -110 c41 -49 27 -52 -18 -4 -20 22 -31 40 -24
39 7 0 26 -16 42 -35z m197 -4 c22 0 39 -4 39 -10 0 -10 -76 -3 -120 12 -21 7
-19 7 9 3 18 -3 51 -5 72 -5z"/>
<path d="M5398 1423 c7 -3 16 -2 19 1 4 3 -2 6 -13 5 -11 0 -14 -3 -6 -6z"/>
<path d="M5775 1401 c22 -11 54 -20 70 -20 l30 0 -35 13 c-20 8 -51 16 -70 20
l-35 6 40 -19z"/>
<path d="M5955 1329 c113 -32 140 -32 78 -1 -46 24 -57 27 -49 13 4 -5 -3 -7
-15 -4 -11 3 -16 9 -11 12 6 3 -15 7 -47 7 l-56 1 100 -28z"/>
</g>
</svg>
